<mxfile host="app.diagrams.net" modified="2022-08-14T15:07:06.382Z" agent="5.0 (Windows NT 10.0; Win64; x64) AppleWebKit/537.36 (KHTML, like Gecko) Chrome/103.0.5060.114 Safari/537.36 OPR/89.0.4447.64" etag="-hqiilF0OGNwRSrg2ESV" version="20.2.3" type="github">
  <diagram id="bh1x218cqG3amBMG1zUf" name="Страница 1">
    <mxGraphModel dx="1181" dy="690" grid="1" gridSize="10" guides="1" tooltips="1" connect="1" arrows="1" fold="1" page="1" pageScale="1" pageWidth="827" pageHeight="1169" math="0" shadow="0">
      <root>
        <mxCell id="0" />
        <mxCell id="1" parent="0" />
        <mxCell id="Arv43Icar77DO5TZ7PQM-1" value="&lt;h1&gt;Задача 4&lt;/h1&gt;&lt;div&gt;&lt;font style=&quot;font-size: 16px;&quot;&gt;Составить блок-схему нахождения факториала N.&lt;/font&gt;&lt;br&gt;&lt;/div&gt;" style="text;html=1;strokeColor=none;fillColor=none;spacing=5;spacingTop=-20;whiteSpace=wrap;overflow=hidden;rounded=0;" vertex="1" parent="1">
          <mxGeometry x="10" y="10" width="190" height="130" as="geometry" />
        </mxCell>
        <mxCell id="Arv43Icar77DO5TZ7PQM-4" style="edgeStyle=orthogonalEdgeStyle;rounded=0;orthogonalLoop=1;jettySize=auto;html=1;exitX=0.5;exitY=1;exitDx=0;exitDy=0;entryX=0.5;entryY=0;entryDx=0;entryDy=0;fontSize=16;" edge="1" parent="1" source="Arv43Icar77DO5TZ7PQM-2" target="Arv43Icar77DO5TZ7PQM-3">
          <mxGeometry relative="1" as="geometry" />
        </mxCell>
        <mxCell id="Arv43Icar77DO5TZ7PQM-2" value="&lt;font style=&quot;font-size: 24px;&quot;&gt;Начало&lt;/font&gt;" style="ellipse;whiteSpace=wrap;html=1;" vertex="1" parent="1">
          <mxGeometry x="350" y="110" width="120" height="80" as="geometry" />
        </mxCell>
        <mxCell id="Arv43Icar77DO5TZ7PQM-14" style="edgeStyle=orthogonalEdgeStyle;rounded=0;orthogonalLoop=1;jettySize=auto;html=1;exitX=0.5;exitY=1;exitDx=0;exitDy=0;entryX=0.5;entryY=0;entryDx=0;entryDy=0;fontSize=16;" edge="1" parent="1" source="Arv43Icar77DO5TZ7PQM-3" target="Arv43Icar77DO5TZ7PQM-12">
          <mxGeometry relative="1" as="geometry" />
        </mxCell>
        <mxCell id="Arv43Icar77DO5TZ7PQM-3" value="i = 1&lt;br&gt;o = 1" style="rounded=0;whiteSpace=wrap;html=1;fontSize=16;" vertex="1" parent="1">
          <mxGeometry x="350" y="230" width="120" height="60" as="geometry" />
        </mxCell>
        <mxCell id="Arv43Icar77DO5TZ7PQM-16" style="edgeStyle=orthogonalEdgeStyle;rounded=0;orthogonalLoop=1;jettySize=auto;html=1;exitX=0;exitY=0.5;exitDx=0;exitDy=0;entryX=0.5;entryY=0;entryDx=0;entryDy=0;fontSize=16;" edge="1" parent="1" source="Arv43Icar77DO5TZ7PQM-12" target="Arv43Icar77DO5TZ7PQM-15">
          <mxGeometry relative="1" as="geometry" />
        </mxCell>
        <mxCell id="Arv43Icar77DO5TZ7PQM-17" style="edgeStyle=orthogonalEdgeStyle;rounded=0;orthogonalLoop=1;jettySize=auto;html=1;exitX=0.5;exitY=1;exitDx=0;exitDy=0;fontSize=16;entryX=0.5;entryY=0;entryDx=0;entryDy=0;" edge="1" parent="1" source="Arv43Icar77DO5TZ7PQM-12" target="Arv43Icar77DO5TZ7PQM-12">
          <mxGeometry relative="1" as="geometry">
            <mxPoint x="409.80952380952374" y="410" as="targetPoint" />
            <Array as="points">
              <mxPoint x="410" y="490" />
              <mxPoint x="520" y="490" />
              <mxPoint x="520" y="360" />
              <mxPoint x="410" y="360" />
            </Array>
          </mxGeometry>
        </mxCell>
        <mxCell id="Arv43Icar77DO5TZ7PQM-12" value="i = i * (o +1)&lt;br&gt;o + 1&lt;br&gt;" style="rhombus;whiteSpace=wrap;html=1;fontSize=16;" vertex="1" parent="1">
          <mxGeometry x="325.25" y="370" width="169.5" height="100" as="geometry" />
        </mxCell>
        <mxCell id="Arv43Icar77DO5TZ7PQM-15" value="result = i" style="rounded=0;whiteSpace=wrap;html=1;fontSize=16;" vertex="1" parent="1">
          <mxGeometry x="350" y="530" width="120" height="60" as="geometry" />
        </mxCell>
      </root>
    </mxGraphModel>
  </diagram>
</mxfile>
